<svg xmlns="http://www.w3.org/2000/svg" viewBox="0 0 480 360" fill="none" role="img" aria-label="NextBody body composition report">
  <defs>
    <linearGradient id="bg" x1="0" y1="0" x2="1" y2="1">
      <stop offset="0%" stop-color="#0a1020"/>
      <stop offset="100%" stop-color="#050508"/>
    </linearGradient>
  </defs>
  <rect width="480" height="360" rx="16" fill="url(#bg)" stroke="#1a2840" stroke-width="1.5"/>
  <rect x="20" y="20" width="140" height="8" rx="4" fill="#0066ff" opacity="0.6"/>
  <rect x="20" y="36" width="90" height="6" rx="3" fill="#334466"/>
  <!-- body figure -->
  <ellipse cx="130" cy="200" rx="42" ry="52" fill="#00e5ff" opacity="0.12"/>
  <path d="M130 148c-14 0-26 12-26 26v18c0 8 6 14 14 14h24c8 0 14-6 14-14v-18c0-14-12-26-26-26z" fill="#00e5ff" opacity="0.35"/>
  <path d="M130 206v58c-16 0-30 14-30 30v22h60v-22c0-16-14-30-30-30v-58z" fill="#00e5ff" opacity="0.22"/>
  <line x1="88" y1="200" x2="172" y2="200" stroke="#00ff88" stroke-width="1.5" stroke-dasharray="4 4" opacity="0.7"/>
  <!-- metric cards -->
  <rect x="220" y="60" width="110" height="64" rx="10" fill="#0c1424" stroke="#0066ff" stroke-width="1" opacity="0.9"/>
  <text x="236" y="88" fill="#8899bb" font-family="system-ui,sans-serif" font-size="11">Body Fat</text>
  <text x="236" y="112" fill="#00e5ff" font-family="system-ui,sans-serif" font-size="22" font-weight="700">18.2%</text>
  <rect x="346" y="60" width="110" height="64" rx="10" fill="#0c1424" stroke="#00ff88" stroke-width="1" opacity="0.9"/>
  <text x="362" y="88" fill="#8899bb" font-family="system-ui,sans-serif" font-size="11">Muscle</text>
  <text x="362" y="112" fill="#00ff88" font-family="system-ui,sans-serif" font-size="22" font-weight="700">42.1kg</text>
  <rect x="220" y="140" width="110" height="64" rx="10" fill="#0c1424" stroke="#0066ff" stroke-width="1" opacity="0.9"/>
  <text x="236" y="168" fill="#8899bb" font-family="system-ui,sans-serif" font-size="11">Posture</text>
  <text x="236" y="192" fill="#00e5ff" font-family="system-ui,sans-serif" font-size="22" font-weight="700">A+</text>
  <rect x="346" y="140" width="110" height="64" rx="10" fill="#0c1424" stroke="#00ff88" stroke-width="1" opacity="0.9"/>
  <text x="362" y="168" fill="#8899bb" font-family="system-ui,sans-serif" font-size="11">Visceral</text>
  <text x="362" y="192" fill="#00ff88" font-family="system-ui,sans-serif" font-size="22" font-weight="700">Level 4</text>
  <!-- chart -->
  <rect x="220" y="224" width="236" height="110" rx="10" fill="#080c16" stroke="#1a2840" stroke-width="1"/>
  <polyline points="236,310 268,280 300,290 332,250 364,260 396,220 432,230" fill="none" stroke="#0066ff" stroke-width="2.5" stroke-linecap="round" stroke-linejoin="round"/>
  <circle cx="432" cy="230" r="5" fill="#00e5ff"/>
</svg>
